HIERARCHY
ROOT Hips
{
	OFFSET 0.00000 0.00000 0.00000
	CHANNELS 6 Xposition Yposition Zposition Zrotation Yrotation Xrotation 
	JOINT LHipJoint
	{
		OFFSET 0 0 0
		CHANNELS 3 Zrotation Yrotation Xrotation
		JOINT LeftHip
		{
			OFFSET 1.86795 -1.59681 0.65681
			CHANNELS 3 Zrotation Yrotation Xrotation
			JOINT LeftKnee
			{
				OFFSET 2.30491 -6.33268 0.00000
				CHANNELS 3 Zrotation Yrotation Xrotation
				JOINT LeftAnkle
				{
					OFFSET 2.46780 -6.78022 0.00000
					CHANNELS 3 Zrotation Yrotation Xrotation
					JOINT LeftToe
					{
						OFFSET 0.07897 -0.21698 1.59652
						CHANNELS 3 Zrotation Yrotation Xrotation
						End Site
						{
							OFFSET 0.00000 -0.00000 0.82310
						}
					}
				}
			}
		}
	}
	JOINT RHipJoint
	{
		OFFSET 0 0 0
		CHANNELS 3 Zrotation Yrotation Xrotation
		JOINT RightHip
		{
			OFFSET -1.93650 -1.59681 0.65681
			CHANNELS 3 Zrotation Yrotation Xrotation
			JOINT RightKnee
			{
				OFFSET -2.29410 -6.30299 0.00000
				CHANNELS 3 Zrotation Yrotation Xrotation
				JOINT RightAnkle
				{
					OFFSET -2.48738 -6.83403 0.00000
					CHANNELS 3 Zrotation Yrotation Xrotation
					JOINT RightToe
					{
						OFFSET -0.08699 -0.23899 1.89395
						CHANNELS 3 Zrotation Yrotation Xrotation
						End Site
						{
							OFFSET -0.00000 -0.00000 0.96904
						}
					}
				}
			}
		}
	}
	JOINT lowerback
	{
		OFFSET 0 0 0
		CHANNELS 3 Zrotation Yrotation Xrotation
		JOINT Chest
		{
			OFFSET 0.03629 1.99740 -0.07548
			CHANNELS 3 Zrotation Yrotation Xrotation
			JOINT Chest2
			{
				OFFSET 0.03970 1.94298 0.17218
				CHANNELS 3 Zrotation Yrotation Xrotation
				JOINT lowerneck
				{
					OFFSET 0 0 0
					CHANNELS 3 Zrotation Yrotation Xrotation
					JOINT Neck
					{
						OFFSET -0.05054 1.79469 0.04241
						CHANNELS 3 Zrotation Yrotation Xrotation
						JOINT Head
						{
							OFFSET 0.05195 1.78475 -0.22133
							CHANNELS 3 Zrotation Yrotation Xrotation
							End Site
							{
								OFFSET 0.02420 1.80711 -0.07950
							}
						}
					}
				}
				JOINT LeftCollar
				{
					OFFSET 0 0 0
					CHANNELS 3 Zrotation Yrotation Xrotation
					JOINT LeftShoulder
					{
						OFFSET 2.92134 1.19850 0.36056
CHANNELS 3 Zrotation Xrotation Yrotation
						JOINT LeftElbow
						{
OFFSET 0 -4.841370 0.000000
CHANNELS 3 Zrotation Xrotation Yrotation
							JOINT LeftWrist
							{
OFFSET 0 -3.245200 -0.000000
CHANNELS 3 Zrotation Xrotation Yrotation
								JOINT lhand
								{
									OFFSET 0 0 0
CHANNELS 3 Zrotation Xrotation Yrotation
									JOINT LFingers
									{
OFFSET 0 -0.521220 0.000000
CHANNELS 3 Zrotation Xrotation Yrotation
										End Site
										{
OFFSET 0 -0.420220 0.000000
										}
									}
								}
								JOINT LThumb
								{
OFFSET 0 0.000000 0.000000
CHANNELS 3 Zrotation Xrotation Yrotation
									End Site
									{
OFFSET 0 -0.426640 0.426640
									}
								}
							}
						}
					}
				}
				JOINT RightCollar
				{
					OFFSET 0 0 0
					CHANNELS 3 Zrotation Yrotation Xrotation
					JOINT RightShoulder
					{
						OFFSET -2.84327 1.20795 0.50191
CHANNELS 3 Zrotation Xrotation Yrotation
						JOINT RightElbow
						{
OFFSET 0 -4.722840 0.000000
CHANNELS 3 Zrotation Xrotation Yrotation
							JOINT RightWrist
							{
OFFSET 0 -3.234590 0.000000
CHANNELS 3 Zrotation Xrotation Yrotation
								JOINT rhand
								{
									OFFSET 0 0 0
CHANNELS 3 Zrotation Xrotation Yrotation
									JOINT RFingers
									{
OFFSET 0 -0.307420 0.000000
CHANNELS 3 Zrotation Xrotation Yrotation
										End Site
										{
OFFSET 0 -0.247850 0.000000
										}
									}
								}
								JOINT RThumb
								{
OFFSET 0 0.000000 0.000000
CHANNELS 3 Zrotation Xrotation Yrotation
									End Site
									{
OFFSET 0 -0.251630 0.251630
									}
								}
							}
						}
					}
				}
			}
		}
	}
}
MOTION
Frames: 12
Frame Time: 0.008333333333333333
12.577700 16.616600 -22.490400 4.603000 -6.429600 12.002900 0.000000 0.000000 0.000000 -28.120700 -6.594400 -13.271500 2.004200 8.874800 25.404500 -1.404200 20.728600 -11.796400 0.677100 5.261400 14.655600 0.000000 0.000000 0.000000 22.099500 21.869200 -12.355000 -1.659200 -8.116900 23.069600 1.688400 -31.549000 -36.017700 -3.638500 -11.663200 34.550600 2.300300 0.185100 -4.391300 0.499700 0.198900 -5.152900 -0.770200 0.029200 -2.838300 -5.963300 0.563900 -6.794000 5.401000 0.614800 17.805400 2.772000 0.330900 6.474300 -0.000000 0.000000 0.000000 -2.468500 9.190300 7.546500 6.173200 -10.550700 0.570500 -32.844300 21.210700 -28.131900 0.000000 0.000000 0.000000 -7.125000 0.000000 0.000000 -58.936000 49.140800 8.885300 -0.000000 0.000000 0.000000 -2.263900 11.074700 32.618900 -7.247500 -12.325900 -0.783600 -5.017500 -29.487900 -19.139500 0.000000 0.000000 0.000000 7.125000 0.000000 -0.000000 15.004200 11.259500 12.223300
12.449480 16.524708 -22.188338 5.311493 -6.693789 11.240692 0.000000 0.000000 0.000000 -28.485873 -6.386501 -12.252296 2.279285 9.424899 27.133840 -1.148287 19.300104 -13.021760 1.848889 8.540877 24.371251 0.000000 0.000000 0.000000 22.737028 16.804461 -14.039278 -2.040130 -8.949044 25.636088 2.698697 -33.439394 -33.833435 -2.016590 -8.899815 25.482973 1.901700 0.433696 -3.996487 0.331683 0.546879 -5.214578 -0.716624 0.210767 -3.113498 -5.745626 0.452570 -6.655943 5.051735 0.485746 17.879368 2.613674 0.253769 6.485170 0.000000 0.000000 0.000000 -2.436853 9.242956 7.452714 6.238268 -10.658856 0.582540 -39.213943 14.326923 -31.362683 0.000000 0.000000 0.000000 -7.125000 0.000000 0.000000 -66.187222 50.100976 13.659665 0.000000 0.000000 0.000000 -1.898706 11.640898 31.313203 -7.230917 -12.298523 -0.780219 -6.436965 -29.969461 -19.949524 0.000000 0.000000 0.000000 7.125000 0.000000 0.000000 14.083183 10.374194 11.684625
12.281685 16.383843 -21.869862 3.065146 -5.572666 10.918267 0.000000 0.000000 0.000000 -25.419334 -8.129027 -11.903368 2.466977 9.777399 28.259022 -0.690669 21.127071 -24.201831 3.752077 11.821016 35.104213 0.000000 0.000000 0.000000 26.053401 15.046442 -11.547257 -1.894306 -8.641790 24.681523 2.246803 -31.656963 -32.837574 -1.702584 -8.216544 23.373992 3.031045 0.384190 -3.911923 0.906268 0.476353 -5.106234 -0.758138 0.150022 -3.050782 -6.141115 0.001986 -7.290994 5.505702 -0.115576 17.667505 2.783311 -0.017606 6.562981 0.000000 0.000000 0.000000 -3.170627 8.943104 8.496425 6.268085 -10.708555 0.588048 -39.792902 11.402134 -33.592467 0.000000 0.000000 0.000000 -7.125000 0.000000 0.000000 -69.109336 51.306889 17.925077 0.000000 0.000000 0.000000 -1.654959 10.297209 25.187059 -5.856676 -10.022798 -0.514130 -4.643719 -23.920565 -19.474071 0.000000 0.000000 0.000000 7.125000 0.000000 0.000000 15.230227 10.959985 12.518961
12.084898 16.350726 -21.565291 1.932128 -3.487138 11.220177 0.000000 0.000000 0.000000 -22.972725 -13.230671 -11.955963 1.957188 8.776015 25.097291 -0.349193 21.548097 -27.853782 2.379364 9.610341 27.727762 0.000000 0.000000 0.000000 28.645134 15.976482 -8.710602 -1.604614 -7.988866 22.680286 2.736578 -34.030360 -34.922630 -1.882345 -8.615607 24.600728 2.509871 0.271526 -4.397547 0.644434 0.319016 -5.306957 -0.736379 0.083992 -2.992217 -6.736055 -0.618808 -6.880690 6.272714 -1.015378 16.928474 3.051456 -0.432349 6.315966 0.000000 0.000000 0.000000 -2.563745 8.303757 10.293238 5.638441 -9.657688 0.476678 -36.880054 18.669334 -32.393362 0.000000 0.000000 0.000000 -7.125000 0.000000 0.000000 -65.924264 51.138872 15.814547 0.000000 0.000000 0.000000 -1.266847 11.317380 29.287267 -6.426243 -10.971027 -0.617882 -6.004620 -27.199319 -20.323860 0.000000 0.000000 0.000000 7.125000 0.000000 0.000000 14.349196 10.042932 12.020097
11.944959 16.473620 -21.306212 1.689701 -1.852249 11.599393 0.000000 0.000000 0.000000 -21.422198 -17.433927 -12.896625 1.406489 7.500465 21.207423 -0.554089 19.869284 -23.296340 0.225624 3.045550 8.406591 0.000000 0.000000 0.000000 29.399419 13.689299 -9.415271 -1.692117 -8.192658 23.300916 2.677193 -32.929124 -32.789217 -2.280576 -9.423822 27.133283 0.892938 0.274596 -4.555204 0.153406 0.346461 -5.166105 -0.335181 0.146305 -2.758011 -7.332988 -1.066432 -6.952789 6.913736 -1.630896 16.487540 3.307392 -0.714985 6.239745 0.000000 0.000000 0.000000 -2.212106 7.358043 11.458177 5.667596 -9.706634 0.481702 -37.193414 18.371545 -32.423249 0.000000 0.000000 0.000000 -7.125000 0.000000 0.000000 -66.156903 51.099145 15.850367 0.000000 0.000000 0.000000 -1.705591 11.741532 36.049988 -7.506084 -12.749068 -0.839855 -4.286530 -31.609226 -19.396594 0.000000 0.000000 0.000000 7.125000 0.000000 0.000000 15.459097 11.057544 12.689726
11.891084 16.680147 -21.007304 1.247357 -1.111347 11.342609 0.000000 0.000000 0.000000 -21.288571 -17.951285 -13.178288 1.010999 6.397601 17.942392 -0.828781 19.369913 -19.134472 0.007798 0.167327 0.459960 0.000000 0.000000 0.000000 29.312712 9.816723 -10.451215 -1.861469 -8.571305 24.463329 3.080295 -31.273592 -24.590943 -2.127352 -9.073927 26.064632 -0.210362 0.027042 -4.411052 0.002560 0.039898 -4.882890 0.121319 0.025901 -2.548519 -7.490843 -0.962157 -6.579698 7.304821 -1.559173 16.566375 3.467061 -0.667128 6.195335 0.000000 0.000000 0.000000 -2.276297 7.666544 10.401726 5.893495 -10.084392 0.520430 -37.095423 15.978671 -32.279257 0.000000 0.000000 0.000000 -7.125000 0.000000 0.000000 -65.933644 51.031669 15.588290 0.000000 0.000000 0.000000 -2.250002 11.358153 38.072695 -7.830735 -13.278099 -0.912883 -4.656897 -31.648205 -18.827283 0.000000 0.000000 0.000000 7.125000 0.000000 0.000000 15.244552 11.584087 12.328109
11.894433 16.739361 -20.634816 -0.336259 -0.686091 11.649869 0.000000 0.000000 0.000000 -21.309397 -15.364780 -15.678586 1.299749 7.222291 20.375899 -1.415502 21.599054 -15.630829 0.292304 3.475563 9.605771 0.000000 0.000000 0.000000 30.123726 8.289565 -11.375070 -2.201317 -9.273261 26.653969 2.882792 -29.343593 -19.863082 -2.625948 -10.058854 29.171657 0.100857 -0.514941 -5.468312 0.533432 -0.685923 -4.900413 0.466626 -0.338602 -1.972011 -7.421717 -0.803654 -6.644652 8.054023 -1.494282 16.952555 3.710045 -0.575584 6.323038 0.000000 0.000000 0.000000 -2.802520 8.538540 9.445780 5.956477 -10.189521 0.531539 -36.679157 14.949576 -31.301454 0.000000 0.000000 0.000000 -7.125000 0.000000 0.000000 -64.596511 50.513330 13.828072 0.000000 0.000000 0.000000 -2.754419 11.425516 38.300554 -8.156103 -13.805322 -0.989331 -3.995132 -32.833638 -18.499293 0.000000 0.000000 0.000000 7.125000 0.000000 0.000000 15.678568 11.940485 12.588617
11.949967 16.606765 -20.260995 -0.352238 -2.167143 11.129703 0.000000 0.000000 0.000000 -22.116496 -13.271000 -14.461348 1.413686 7.519725 21.264688 -1.015710 19.987684 -17.899287 0.346198 3.746286 10.368307 0.000000 0.000000 0.000000 29.460729 7.036608 -11.515089 -2.470892 -9.784784 28.282487 2.511511 -29.136895 -24.228475 -3.417788 -11.340265 33.438822 -0.162182 -0.959119 -5.127406 0.686179 -1.269525 -4.873102 0.755555 -0.622046 -2.120360 -7.257081 -0.591757 -7.213915 8.136316 -1.139138 15.584952 3.712129 -0.379318 5.962969 0.000000 0.000000 0.000000 -3.217733 9.660250 7.550465 6.098393 -10.426197 0.556914 -32.515203 14.899321 -32.831981 0.000000 0.000000 0.000000 -7.125000 0.000000 0.000000 -63.504991 52.212802 16.777501 0.000000 0.000000 0.000000 -2.886741 10.929915 37.884549 -8.376799 -14.161772 -1.042343 -5.505914 -32.502570 -19.332968 0.000000 0.000000 0.000000 7.125000 0.000000 0.000000 14.688230 11.039691 12.015461
12.008140 16.491266 -19.895230 0.310630 -4.405376 10.367699 0.000000 0.000000 0.000000 -23.478686 -12.786526 -11.231944 1.297756 7.217458 20.361167 -1.194611 20.910448 -17.545919 0.037104 1.121527 3.084419 0.000000 0.000000 0.000000 27.190272 10.738508 -10.191882 -2.025681 -8.918941 25.542344 0.596221 -30.297797 -39.581023 -5.438793 -13.859931 42.682526 -0.032607 -1.144174 -4.081014 0.621595 -1.521458 -5.102598 0.635744 -0.752250 -2.944156 -6.920057 -0.219741 -7.465620 7.845446 -0.578018 14.768940 3.588100 -0.105632 5.706022 0.000000 0.000000 0.000000 -3.243041 10.916706 6.859304 6.270976 -10.713341 0.588589 -41.361501 11.290293 -33.708889 0.000000 0.000000 0.000000 -7.125000 0.000000 0.000000 -70.184968 51.090855 18.057520 0.000000 0.000000 0.000000 -3.248522 10.679346 40.556874 -8.114482 -13.738269 -0.979175 -6.109649 -31.547432 -18.406881 0.000000 0.000000 0.000000 7.125000 0.000000 0.000000 14.329153 11.898152 11.439534
12.052704 16.534229 -19.600505 0.729232 -7.119176 10.730269 0.000000 0.000000 0.000000 -25.030367 -12.075991 -10.417954 1.243138 7.069750 19.922191 -1.900135 24.661198 -17.666019 0.126413 2.287670 6.301590 0.000000 0.000000 0.000000 24.728677 15.700749 -11.689976 -1.738496 -8.298332 23.624245 -0.210003 -30.019868 -42.805343 -5.542149 -13.969438 43.115207 0.985796 -0.916828 -4.118497 0.854007 -1.235229 -5.115049 0.308771 -0.639948 -2.956341 -6.280861 0.183608 -8.225708 6.914873 0.081702 14.449144 3.228514 0.196969 5.692186 0.000000 0.000000 0.000000 -3.556320 11.030142 5.240699 6.249177 -10.677029 0.584543 -37.392723 13.866853 -33.451700 0.000000 0.000000 0.000000 -7.125000 0.000000 0.000000 -67.446556 51.665745 17.768397 0.000000 0.000000 0.000000 -2.962301 9.468896 37.657628 -7.178343 -12.212241 -0.769000 -7.473567 -28.505446 -19.739535 0.000000 0.000000 0.000000 7.125000 0.000000 0.000000 13.428703 10.500590 11.072916
12.000288 16.699590 -19.297578 0.735662 -9.126433 9.474505 0.000000 0.000000 0.000000 -25.302011 -9.469002 -9.542941 1.357554 7.375213 20.831973 -2.058080 24.695033 -13.827324 0.072531 1.737245 4.780144 0.000000 0.000000 0.000000 24.089359 18.498263 -10.470286 -1.451417 -7.615240 21.551430 1.515575 -30.657519 -35.374612 -4.356405 -12.619930 37.962215 2.333093 -0.613641 -3.615339 1.132588 -0.849853 -4.334912 -0.154446 -0.476959 -2.446540 -5.731749 0.521056 -7.763918 6.731466 0.451762 14.788290 3.105396 0.385185 5.694405 0.000000 0.000000 0.000000 -3.344108 10.569123 3.125818 6.279893 -10.728197 0.590212 -40.293948 10.486903 -32.333085 0.000000 0.000000 0.000000 -7.125000 0.000000 0.000000 -67.932698 50.492795 15.400400 0.000000 0.000000 0.000000 -3.150138 9.352049 36.591833 -7.257067 -12.341479 -0.785671 -10.901564 -32.732340 -19.400702 0.000000 0.000000 0.000000 7.125000 0.000000 0.000000 11.235823 10.541978 9.173463
11.889843 16.771004 -18.980403 1.504192 -9.197702 9.729335 0.000000 0.000000 0.000000 -25.598757 -8.384718 -10.401052 1.557026 7.875027 22.335217 -1.753502 22.788754 -11.489795 0.340814 3.748667 10.370941 0.000000 0.000000 0.000000 23.501603 16.249603 -12.799823 -1.785729 -8.404088 23.948793 4.161735 -34.462034 -24.103800 -1.371723 -7.358659 20.807473 3.058914 -0.454602 -5.101168 1.191843 -0.711567 -4.373924 -0.513649 -0.418937 -1.665535 -5.615975 0.608669 -7.514393 6.091984 0.594511 16.062800 2.910807 0.408649 6.045749 0.000000 0.000000 0.000000 -3.119819 10.114680 5.248679 6.377779 -10.890784 0.608612 -39.246329 12.414585 -31.456985 0.000000 0.000000 0.000000 -7.125000 0.000000 0.000000 -66.318663 50.154137 13.823535 0.000000 0.000000 0.000000 -3.181708 10.021949 35.447945 -7.724221 -13.104807 -0.888666 -10.373430 -33.443671 -20.256385 0.000000 0.000000 0.000000 7.125000 0.000000 0.000000 11.580876 9.743045 9.658276
